<svg width="16" height="15" viewBox="0 0 16 15" fill="none" xmlns="http://www.w3.org/2000/svg">
<path d="M5.7516 0.231562L8.27139 4.35483H6.79035L4.35399 0.368086C4.25547 0.206865 4.37151 0 4.56045 0H5.33875C5.50729 0 5.66371 0.0877148 5.7516 0.231562Z" fill="#FF646F"/>
<path d="M6.27694 0C6.44552 0 6.6019 0.0877148 6.68982 0.231562L9.20961 4.35483H7.99992L5.33862 0H6.27694Z" fill="#FF8086"/>
<path d="M10.2483 0.231562L7.72852 4.35483L9.65312 3.62903L11.6459 0.368086C11.7444 0.206865 11.6284 0 11.4395 0H10.6612C10.4926 0 10.3362 0.0877148 10.2483 0.231562Z" fill="#FF8086"/>
<path d="M10.6613 0H9.72293C9.55436 0 9.39797 0.0877148 9.31005 0.231562L6.79028 4.35483H9.20965L9.65321 3.62903H8.8749C8.68597 3.62903 8.56995 3.42217 8.66848 3.26095L10.6613 0Z" fill="#FF646F"/>
<path d="M9.69346 6.04826C9.55972 6.04826 9.45152 5.93992 9.45152 5.80633V4.83859C9.45152 4.70523 9.34307 4.59666 9.20959 4.59666H6.79025C6.65678 4.59666 6.54832 4.70523 6.54832 4.83859V5.80633C6.54832 5.93992 6.4401 6.04826 6.30639 6.04826C6.17265 6.04826 6.06445 5.93992 6.06445 5.80633V4.83859C6.06445 4.43837 6.39003 4.11279 6.79025 4.11279H9.20962C9.60984 4.11279 9.93542 4.43837 9.93542 4.83859V5.80633C9.93542 5.93992 9.8272 6.04826 9.69346 6.04826Z" fill="#FFAA5A"/>
<path d="M12.8386 10.1615C12.8386 11.4049 12.3696 12.5388 11.5988 13.3959C10.713 14.3808 9.42877 14.8585 7.9999 14.8585C5.32756 14.8585 3.31592 12.8338 3.31592 10.1615C3.31592 8.7342 3.77913 7.45129 4.76207 6.56564C5.61956 5.79303 6.75481 5.32275 7.9999 5.32275C10.6722 5.32272 12.8386 7.48911 12.8386 10.1615Z" fill="#FFE077"/>
<path d="M11.8709 10.161C11.8709 10.4964 11.5813 10.7893 11.4987 11.0987C11.4131 11.4187 11.5149 11.8167 11.3528 12.0969C11.1883 12.3812 10.7912 12.491 10.5605 12.7217C10.3298 12.9524 10.2201 13.3494 9.93581 13.5139C9.65559 13.676 9.25765 13.5741 8.93758 13.6597C8.62824 13.7424 8.33538 14.032 7.99996 14.032C7.66454 14.032 7.37169 13.7424 7.06235 13.6597C6.74231 13.5741 6.34434 13.676 6.06414 13.5139C5.77991 13.3494 5.6701 12.9523 5.43945 12.7217C5.20876 12.491 4.81165 12.3812 4.64717 12.0969C4.48501 11.8167 4.58685 11.4187 4.5013 11.0987C4.4186 10.7893 4.12903 10.4965 4.12903 10.161C4.12903 9.82559 4.41863 9.53271 4.5013 9.22333C4.58685 8.90326 4.48501 8.50529 4.64717 8.22507C4.81165 7.94083 5.20876 7.83103 5.43945 7.60034C5.67013 7.36966 5.77991 6.97257 6.06414 6.80812C6.34437 6.646 6.74231 6.74786 7.06235 6.66231C7.37169 6.57964 7.66454 6.29004 7.99996 6.29004C8.33538 6.29004 8.62824 6.57961 8.93758 6.66231C9.25762 6.74786 9.65559 6.64603 9.93581 6.80812C10.2201 6.97257 10.3299 7.36969 10.5605 7.60034C10.7912 7.83103 11.1883 7.94083 11.3528 8.22507C11.5149 8.50529 11.4131 8.90326 11.4987 9.22333C11.5813 9.53268 11.8709 9.82559 11.8709 10.161Z" fill="#FFEAA5"/>
<path d="M8.13313 7.74325L8.65534 9.35048H10.3453C10.4809 9.35048 10.5373 9.52409 10.4276 9.60384L9.0604 10.5972L9.46139 11.8312L7.54104 10.8991L6.04675 9.35048H7.34449L7.8667 7.74325C7.90869 7.61423 8.0912 7.61423 8.13313 7.74325Z" fill="#FFD05B"/>
<path d="M8.36286 14.637C5.69051 14.637 3.52416 12.4707 3.52416 9.79834C3.52416 8.55457 3.991 7.4226 4.76212 6.56543C3.7776 7.45116 3.16125 8.73267 3.16125 10.1612C3.16125 12.8336 5.32761 14.9999 7.99996 14.9999C9.42856 14.9999 10.7131 14.3802 11.5988 13.3957C10.7416 14.1668 9.60663 14.637 8.36286 14.637Z" fill="#FFD05B"/>
<path d="M6.0468 9.3501H5.6546C5.51893 9.3501 5.46253 9.52371 5.57228 9.60346L6.93947 10.5968L6.41726 12.204C6.37533 12.333 6.52302 12.4403 6.63276 12.3606L7.99996 11.3672L9.36716 12.3606C9.4769 12.4403 9.62459 12.333 9.58267 12.204L9.46144 11.8308L6.0468 9.3501Z" fill="#FFAA5A"/>
</svg>
