<svg width="136" height="136" viewBox="0 0 136 136" fill="none" xmlns="http://www.w3.org/2000/svg">
<circle cx="68" cy="68" r="56" stroke="#A36C22" stroke-width="2" stroke-dasharray="15 15"/>
<g filter="url(#filter0_d_428:3409)">
<circle cx="68" cy="68" r="48" fill="white"/>
</g>
<path d="M66.6256 68.08C66.6256 72.7467 65.7323 76.3333 63.9456 78.84C62.1856 81.32 59.7456 82.56 56.6256 82.56C53.5056 82.56 51.0523 81.32 49.2656 78.84C47.5056 76.3333 46.6256 72.7467 46.6256 68.08C46.6256 65.76 46.8523 63.7067 47.3056 61.92C47.7856 60.1333 48.4656 58.6267 49.3456 57.4C50.2256 56.1733 51.279 55.24 52.5056 54.6C53.7323 53.96 55.1056 53.64 56.6256 53.64C59.7456 53.64 62.1856 54.8933 63.9456 57.4C65.7323 59.88 66.6256 63.44 66.6256 68.08ZM60.5456 68.08C60.5456 66.6933 60.479 65.44 60.3456 64.32C60.2123 63.1733 59.999 62.1867 59.7056 61.36C59.4123 60.5333 59.0123 59.8933 58.5056 59.44C57.999 58.9867 57.3723 58.76 56.6256 58.76C55.879 58.76 55.2523 58.9867 54.7456 59.44C54.2656 59.8933 53.8656 60.5333 53.5456 61.36C53.2523 62.1867 53.039 63.1733 52.9056 64.32C52.7723 65.44 52.7056 66.6933 52.7056 68.08C52.7056 69.4667 52.7723 70.7333 52.9056 71.88C53.039 73.0267 53.2523 74.0133 53.5456 74.84C53.8656 75.6667 54.2656 76.3067 54.7456 76.76C55.2523 77.2133 55.879 77.44 56.6256 77.44C57.3723 77.44 57.999 77.2133 58.5056 76.76C59.0123 76.3067 59.4123 75.6667 59.7056 74.84C59.999 74.0133 60.2123 73.0267 60.3456 71.88C60.479 70.7333 60.5456 69.4667 60.5456 68.08ZM77.12 82.6C76.4 82.6 75.64 82.5467 74.84 82.44C74.04 82.36 73.2667 82.24 72.52 82.08C71.7733 81.92 71.0933 81.7467 70.48 81.56C69.8667 81.3733 69.3867 81.2 69.04 81.04L70.2 76.08C70.8933 76.3733 71.7733 76.6933 72.84 77.04C73.9333 77.36 75.28 77.52 76.88 77.52C78.72 77.52 80.0667 77.1733 80.92 76.48C81.7733 75.7867 82.2 74.8533 82.2 73.68C82.2 72.96 82.04 72.36 81.72 71.88C81.4267 71.3733 81.0133 70.9733 80.48 70.68C79.9467 70.36 79.3067 70.1467 78.56 70.04C77.84 69.9067 77.0667 69.84 76.24 69.84H73.92V65.04H76.56C77.1467 65.04 77.7067 64.9867 78.24 64.88C78.8 64.7733 79.2933 64.6 79.72 64.36C80.1467 64.0933 80.48 63.7467 80.72 63.32C80.9867 62.8667 81.12 62.3067 81.12 61.64C81.12 61.1333 81.0133 60.6933 80.8 60.32C80.5867 59.9467 80.3067 59.64 79.96 59.4C79.64 59.16 79.2533 58.9867 78.8 58.88C78.3733 58.7467 77.9333 58.68 77.48 58.68C76.3333 58.68 75.2667 58.8533 74.28 59.2C73.32 59.5467 72.44 59.9733 71.64 60.48L69.52 56.12C69.9467 55.8533 70.44 55.5733 71 55.28C71.5867 54.9867 72.2267 54.72 72.92 54.48C73.6133 54.24 74.3467 54.04 75.12 53.88C75.92 53.72 76.76 53.64 77.64 53.64C79.2667 53.64 80.6667 53.84 81.84 54.24C83.04 54.6133 84.0267 55.16 84.8 55.88C85.5733 56.5733 86.1467 57.4 86.52 58.36C86.8933 59.2933 87.08 60.32 87.08 61.44C87.08 62.5333 86.7733 63.6 86.16 64.64C85.5467 65.6533 84.72 66.4267 83.68 66.96C85.12 67.5467 86.2267 68.4267 87 69.6C87.8 70.7467 88.2 72.1333 88.2 73.76C88.2 75.04 87.9867 76.2267 87.56 77.32C87.1333 78.3867 86.4667 79.32 85.56 80.12C84.6533 80.8933 83.4933 81.5067 82.08 81.96C80.6933 82.3867 79.04 82.6 77.12 82.6Z" fill="#6F2205"/>
<defs>
<filter id="filter0_d_428:3409" x="0" y="0" width="136" height="136" filterUnits="userSpaceOnUse" color-interpolation-filters="sRGB">
<feFlood flood-opacity="0" result="BackgroundImageFix"/>
<feColorMatrix in="SourceAlpha" type="matrix" values="0 0 0 0 0 0 0 0 0 0 0 0 0 0 0 0 0 0 127 0" result="hardAlpha"/>
<feOffset/>
<feGaussianBlur stdDeviation="10"/>
<feComposite in2="hardAlpha" operator="out"/>
<feColorMatrix type="matrix" values="0 0 0 0 0 0 0 0 0 0 0 0 0 0 0 0 0 0 0.1 0"/>
<feBlend mode="normal" in2="BackgroundImageFix" result="effect1_dropShadow_428:3409"/>
<feBlend mode="normal" in="SourceGraphic" in2="effect1_dropShadow_428:3409" result="shape"/>
</filter>
</defs>
</svg>
