<svg width="136" height="136" viewBox="0 0 136 136" fill="none" xmlns="http://www.w3.org/2000/svg">
<circle cx="68" cy="68" r="56" stroke="#A36C22" stroke-width="2" stroke-dasharray="15 15"/>
<g filter="url(#filter0_d_428:3408)">
<circle cx="68" cy="68" r="48" fill="white"/>
</g>
<path d="M66.6256 68.08C66.6256 72.7467 65.7323 76.3333 63.9456 78.84C62.1856 81.32 59.7456 82.56 56.6256 82.56C53.5056 82.56 51.0523 81.32 49.2656 78.84C47.5056 76.3333 46.6256 72.7467 46.6256 68.08C46.6256 65.76 46.8523 63.7067 47.3056 61.92C47.7856 60.1333 48.4656 58.6267 49.3456 57.4C50.2256 56.1733 51.279 55.24 52.5056 54.6C53.7323 53.96 55.1056 53.64 56.6256 53.64C59.7456 53.64 62.1856 54.8933 63.9456 57.4C65.7323 59.88 66.6256 63.44 66.6256 68.08ZM60.5456 68.08C60.5456 66.6933 60.479 65.44 60.3456 64.32C60.2123 63.1733 59.999 62.1867 59.7056 61.36C59.4123 60.5333 59.0123 59.8933 58.5056 59.44C57.999 58.9867 57.3723 58.76 56.6256 58.76C55.879 58.76 55.2523 58.9867 54.7456 59.44C54.2656 59.8933 53.8656 60.5333 53.5456 61.36C53.2523 62.1867 53.039 63.1733 52.9056 64.32C52.7723 65.44 52.7056 66.6933 52.7056 68.08C52.7056 69.4667 52.7723 70.7333 52.9056 71.88C53.039 73.0267 53.2523 74.0133 53.5456 74.84C53.8656 75.6667 54.2656 76.3067 54.7456 76.76C55.2523 77.2133 55.879 77.44 56.6256 77.44C57.3723 77.44 57.999 77.2133 58.5056 76.76C59.0123 76.3067 59.4123 75.6667 59.7056 74.84C59.999 74.0133 60.2123 73.0267 60.3456 71.88C60.479 70.7333 60.5456 69.4667 60.5456 68.08ZM87.84 61.56C87.84 62.5733 87.64 63.5467 87.24 64.48C86.84 65.4133 86.32 66.32 85.68 67.2C85.04 68.0533 84.32 68.88 83.52 69.68C82.72 70.48 81.9333 71.24 81.16 71.96C80.76 72.3333 80.32 72.76 79.84 73.24C79.3867 73.6933 78.9467 74.16 78.52 74.64C78.0933 75.12 77.7067 75.5733 77.36 76C77.04 76.4 76.84 76.7333 76.76 77H88.68V82H70.2C70.1467 81.7067 70.12 81.3333 70.12 80.88C70.12 80.4267 70.12 80.1067 70.12 79.92C70.12 78.64 70.32 77.4667 70.72 76.4C71.1467 75.3333 71.6933 74.3467 72.36 73.44C73.0267 72.5067 73.7733 71.64 74.6 70.84C75.4533 70.04 76.2933 69.24 77.12 68.44C77.76 67.8267 78.36 67.2533 78.92 66.72C79.48 66.16 79.9733 65.6267 80.4 65.12C80.8267 64.5867 81.16 64.0667 81.4 63.56C81.64 63.0267 81.76 62.4933 81.76 61.96C81.76 60.7867 81.4267 59.96 80.76 59.48C80.0933 59 79.2667 58.76 78.28 58.76C77.56 58.76 76.88 58.88 76.24 59.12C75.6267 59.3333 75.0533 59.6 74.52 59.92C74.0133 60.2133 73.5733 60.52 73.2 60.84C72.8267 61.1333 72.5467 61.3733 72.36 61.56L69.4 57.4C70.5733 56.3067 71.9333 55.4133 73.48 54.72C75.0533 54 76.7333 53.64 78.52 53.64C80.1467 53.64 81.5467 53.8267 82.72 54.2C83.8933 54.5733 84.8533 55.1067 85.6 55.8C86.3733 56.4667 86.9333 57.2933 87.28 58.28C87.6533 59.24 87.84 60.3333 87.84 61.56Z" fill="#6F2205"/>
<defs>
<filter id="filter0_d_428:3408" x="0" y="0" width="136" height="136" filterUnits="userSpaceOnUse" color-interpolation-filters="sRGB">
<feFlood flood-opacity="0" result="BackgroundImageFix"/>
<feColorMatrix in="SourceAlpha" type="matrix" values="0 0 0 0 0 0 0 0 0 0 0 0 0 0 0 0 0 0 127 0" result="hardAlpha"/>
<feOffset/>
<feGaussianBlur stdDeviation="10"/>
<feComposite in2="hardAlpha" operator="out"/>
<feColorMatrix type="matrix" values="0 0 0 0 0 0 0 0 0 0 0 0 0 0 0 0 0 0 0.1 0"/>
<feBlend mode="normal" in2="BackgroundImageFix" result="effect1_dropShadow_428:3408"/>
<feBlend mode="normal" in="SourceGraphic" in2="effect1_dropShadow_428:3408" result="shape"/>
</filter>
</defs>
</svg>
