<svg width="136" height="136" viewBox="0 0 136 136" fill="none" xmlns="http://www.w3.org/2000/svg">
<circle cx="68" cy="68" r="56" stroke="#A36C22" stroke-width="2" stroke-dasharray="15 15"/>
<g filter="url(#filter0_d_428:3410)">
<circle cx="68" cy="68" r="48" fill="white"/>
</g>
<path d="M66.6256 68.08C66.6256 72.7467 65.7323 76.3333 63.9456 78.84C62.1856 81.32 59.7456 82.56 56.6256 82.56C53.5056 82.56 51.0523 81.32 49.2656 78.84C47.5056 76.3333 46.6256 72.7467 46.6256 68.08C46.6256 65.76 46.8523 63.7067 47.3056 61.92C47.7856 60.1333 48.4656 58.6267 49.3456 57.4C50.2256 56.1733 51.279 55.24 52.5056 54.6C53.7323 53.96 55.1056 53.64 56.6256 53.64C59.7456 53.64 62.1856 54.8933 63.9456 57.4C65.7323 59.88 66.6256 63.44 66.6256 68.08ZM60.5456 68.08C60.5456 66.6933 60.479 65.44 60.3456 64.32C60.2123 63.1733 59.999 62.1867 59.7056 61.36C59.4123 60.5333 59.0123 59.8933 58.5056 59.44C57.999 58.9867 57.3723 58.76 56.6256 58.76C55.879 58.76 55.2523 58.9867 54.7456 59.44C54.2656 59.8933 53.8656 60.5333 53.5456 61.36C53.2523 62.1867 53.039 63.1733 52.9056 64.32C52.7723 65.44 52.7056 66.6933 52.7056 68.08C52.7056 69.4667 52.7723 70.7333 52.9056 71.88C53.039 73.0267 53.2523 74.0133 53.5456 74.84C53.8656 75.6667 54.2656 76.3067 54.7456 76.76C55.2523 77.2133 55.879 77.44 56.6256 77.44C57.3723 77.44 57.999 77.2133 58.5056 76.76C59.0123 76.3067 59.4123 75.6667 59.7056 74.84C59.999 74.0133 60.2123 73.0267 60.3456 71.88C60.479 70.7333 60.5456 69.4667 60.5456 68.08ZM80.76 61.56C79.72 62.92 78.6133 64.4 77.44 66C76.2667 67.6 75.28 69.24 74.48 70.92H80.76V61.56ZM86.6 54.28V70.92H89.56V75.8H86.6V82H80.76V75.8H68.8V71.44C69.3867 70.2667 70.12 68.9467 71 67.48C71.88 65.9867 72.8533 64.4667 73.92 62.92C75.0133 61.3467 76.16 59.8133 77.36 58.32C78.56 56.8267 79.76 55.48 80.96 54.28H86.6Z" fill="#6F2205"/>
<defs>
<filter id="filter0_d_428:3410" x="0" y="0" width="136" height="136" filterUnits="userSpaceOnUse" color-interpolation-filters="sRGB">
<feFlood flood-opacity="0" result="BackgroundImageFix"/>
<feColorMatrix in="SourceAlpha" type="matrix" values="0 0 0 0 0 0 0 0 0 0 0 0 0 0 0 0 0 0 127 0" result="hardAlpha"/>
<feOffset/>
<feGaussianBlur stdDeviation="10"/>
<feComposite in2="hardAlpha" operator="out"/>
<feColorMatrix type="matrix" values="0 0 0 0 0 0 0 0 0 0 0 0 0 0 0 0 0 0 0.1 0"/>
<feBlend mode="normal" in2="BackgroundImageFix" result="effect1_dropShadow_428:3410"/>
<feBlend mode="normal" in="SourceGraphic" in2="effect1_dropShadow_428:3410" result="shape"/>
</filter>
</defs>
</svg>
