<svg width="153" height="152" viewBox="0 0 153 152" fill="none" xmlns="http://www.w3.org/2000/svg">
<g filter="url(#filter0_d)">
<circle cx="76.5" cy="76" r="51" fill="url(#paint0_linear)" fill-opacity="0.8"/>
<circle cx="76.5" cy="76" r="51" fill="url(#paint1_linear)" fill-opacity="0.2"/>
<circle cx="77" cy="76.5" r="38.5" fill="url(#paint2_linear)" fill-opacity="0.8"/>
<circle cx="77" cy="76.5" r="38.5" fill="url(#paint3_linear)" fill-opacity="0.2"/>
</g>
<g clip-path="url(#clip0)">
<path d="M77.5 100C90.7548 100 101.5 89.2548 101.5 76C101.5 62.7452 90.7548 52 77.5 52C64.2452 52 53.5 62.7452 53.5 76C53.5 89.2548 64.2452 100 77.5 100Z" fill="#A36C22"/>
<path d="M77.5 52C77.0715 52 76.6458 52.0117 76.2229 52.0338C88.884 52.6978 98.9459 63.1736 98.9459 76C98.9459 88.8264 88.884 99.3022 76.2229 99.9662C76.6458 99.9883 77.0715 100 77.5 100C90.7548 100 101.5 89.2548 101.5 76C101.5 62.7452 90.7548 52 77.5 52Z" fill="#82561A"/>
<path d="M77.5 94.7019C87.8288 94.7019 96.2019 86.3288 96.2019 76C96.2019 65.6712 87.8288 57.2981 77.5 57.2981C67.1712 57.2981 58.7981 65.6712 58.7981 76C58.7981 86.3288 67.1712 94.7019 77.5 94.7019Z" fill="#F4FBFF"/>
<path d="M77.5 57.2981C76.982 57.2981 76.4693 57.3201 75.962 57.3614C85.5713 58.1436 93.1261 66.1892 93.1261 76C93.1261 85.8108 85.5713 93.8563 75.962 94.6386C76.4693 94.68 76.982 94.702 77.5 94.702C87.8288 94.702 96.2019 86.3288 96.2019 76.0001C96.2019 65.6714 87.8288 57.2981 77.5 57.2981Z" fill="#DAF1F4"/>
<path d="M77.5001 63.0541C77.1 63.0541 76.7758 62.7299 76.7758 62.3298V61.2667C76.7758 60.8667 77.1 60.5424 77.5001 60.5424C77.9001 60.5424 78.2245 60.8667 78.2245 61.2667V62.3298C78.2245 62.7299 77.9001 63.0541 77.5001 63.0541Z" fill="#2B4D66"/>
<path d="M87.1268 67.0744C86.9414 67.0744 86.7561 67.0037 86.6146 66.8623C86.3317 66.5793 86.3317 66.1208 86.6147 65.8379L87.3665 65.0862C87.6493 64.8033 88.1079 64.8033 88.3909 65.0862C88.6737 65.3691 88.6737 65.8277 88.3908 66.1106L87.639 66.8624C87.4975 67.0037 87.3122 67.0744 87.1268 67.0744Z" fill="#2B4D66"/>
<path d="M92.1546 76.7244H91.0915C90.6914 76.7244 90.3672 76.4001 90.3672 76.0001C90.3672 75.6 90.6915 75.2758 91.0915 75.2758H92.1546C92.5548 75.2758 92.8789 75.6 92.8789 76.0001C92.8789 76.4001 92.5547 76.7244 92.1546 76.7244Z" fill="#2B4D66"/>
<path d="M87.8227 87.1031C87.6374 87.1031 87.452 87.0323 87.3105 86.8909L86.5588 86.1392C86.276 85.8563 86.276 85.3978 86.5588 85.1147C86.8417 84.832 87.3003 84.832 87.5833 85.1147L88.335 85.8664C88.6178 86.1494 88.6178 86.6079 88.335 86.8909C88.1935 87.0323 88.0081 87.1031 87.8227 87.1031Z" fill="#2B4D66"/>
<path d="M77.4211 91.379C77.0211 91.379 76.6968 91.0547 76.6968 90.6547V89.5916C76.6968 89.1915 77.0211 88.8673 77.4211 88.8673C77.8211 88.8673 78.1454 89.1916 78.1454 89.5916V90.6547C78.1454 91.0547 77.8211 91.379 77.4211 91.379Z" fill="#2B4D66"/>
<path d="M67.0424 87.0472C66.8571 87.0472 66.6717 86.9764 66.5303 86.835C66.2473 86.5521 66.2474 86.0935 66.5303 85.8105L67.2821 85.0589C67.565 84.7761 68.0235 84.776 68.3065 85.059C68.5893 85.3418 68.5893 85.8004 68.3064 86.0834L67.5546 86.8351C67.4132 86.9765 67.2278 87.0472 67.0424 87.0472Z" fill="#2B4D66"/>
<path d="M63.8297 76.6456H62.7665C62.3665 76.6456 62.0422 76.3213 62.0422 75.9212C62.0422 75.5212 62.3665 75.1969 62.7665 75.1969H63.8297C64.2297 75.1969 64.554 75.5212 64.554 75.9212C64.5541 76.3213 64.2297 76.6456 63.8297 76.6456Z" fill="#2B4D66"/>
<path d="M67.8501 67.0186C67.6648 67.0186 67.4795 66.948 67.338 66.8065L66.5862 66.0548C66.3034 65.7719 66.3033 65.3133 66.5861 65.0304C66.869 64.7475 67.3276 64.7474 67.6105 65.0303L68.3623 65.7821C68.6451 66.0649 68.6452 66.5235 68.3624 66.8065C68.2208 66.9479 68.0355 67.0186 67.8501 67.0186Z" fill="#2B4D66"/>
<path d="M77.5 76.7244H71.3481C70.9481 76.7244 70.6238 76.4001 70.6238 76C70.6238 75.6 70.9481 75.2757 71.3481 75.2757H76.7756V66.0604C76.7756 65.6603 77.0999 65.3361 77.4999 65.3361C77.8999 65.3361 78.2242 65.6603 78.2242 66.0604V76C78.2243 76.4001 77.9 76.7244 77.5 76.7244Z" fill="#93B0D0"/>
<path d="M84.9312 80.546C84.8196 80.546 84.7065 80.5202 84.6005 80.4657L77.1688 76.6441C76.813 76.4612 76.6729 76.0245 76.8558 75.6687C77.0387 75.3129 77.4754 75.1728 77.8313 75.3558L85.263 79.1773C85.6188 79.3603 85.759 79.797 85.576 80.1527C85.4474 80.4025 85.1939 80.546 84.9312 80.546Z" fill="#DA4A54"/>
<path d="M77.5 77.9333C78.5677 77.9333 79.4333 77.0678 79.4333 76C79.4333 74.9323 78.5677 74.0667 77.5 74.0667C76.4322 74.0667 75.5667 74.9323 75.5667 76C75.5667 77.0678 76.4322 77.9333 77.5 77.9333Z" fill="#365E7D"/>
</g>
<defs>
<filter id="filter0_d" x="0.5" y="0" width="152" height="152" filterUnits="userSpaceOnUse" color-interpolation-filters="sRGB">
<feFlood flood-opacity="0" result="BackgroundImageFix"/>
<feColorMatrix in="SourceAlpha" type="matrix" values="0 0 0 0 0 0 0 0 0 0 0 0 0 0 0 0 0 0 127 0" result="hardAlpha"/>
<feOffset/>
<feGaussianBlur stdDeviation="12.5"/>
<feComposite in2="hardAlpha" operator="out"/>
<feColorMatrix type="matrix" values="0 0 0 0 0 0 0 0 0 0 0 0 0 0 0 0 0 0 0.1 0"/>
<feBlend mode="normal" in2="BackgroundImageFix" result="effect1_dropShadow"/>
<feBlend mode="normal" in="SourceGraphic" in2="effect1_dropShadow" result="shape"/>
</filter>
<linearGradient id="paint0_linear" x1="35.0625" y1="51.1375" x2="133.238" y2="167.162" gradientUnits="userSpaceOnUse">
<stop stop-color="white"/>
<stop offset="1" stop-color="white" stop-opacity="0"/>
</linearGradient>
<linearGradient id="paint1_linear" x1="51.3188" y1="118.075" x2="127.5" y2="33.2875" gradientUnits="userSpaceOnUse">
<stop stop-color="#93B0D0"/>
<stop offset="1" stop-color="white" stop-opacity="0"/>
</linearGradient>
<linearGradient id="paint2_linear" x1="45.7188" y1="57.7312" x2="119.831" y2="145.319" gradientUnits="userSpaceOnUse">
<stop stop-color="white"/>
<stop offset="1" stop-color="white" stop-opacity="0"/>
</linearGradient>
<linearGradient id="paint3_linear" x1="57.9906" y1="108.263" x2="115.5" y2="44.2562" gradientUnits="userSpaceOnUse">
<stop stop-color="#93B0D0"/>
<stop offset="1" stop-color="white" stop-opacity="0"/>
</linearGradient>
<clipPath id="clip0">
<rect width="48" height="48" fill="white" transform="translate(53.5 52)"/>
</clipPath>
</defs>
</svg>
