<svg width="153" height="152" viewBox="0 0 153 152" fill="none" xmlns="http://www.w3.org/2000/svg">
<g filter="url(#filter0_d)">
<circle cx="76.5" cy="76" r="51" fill="url(#paint0_linear)" fill-opacity="0.8"/>
<circle cx="76.5" cy="76" r="51" fill="url(#paint1_linear)" fill-opacity="0.2"/>
<circle cx="77" cy="76.5" r="38.5" fill="url(#paint2_linear)" fill-opacity="0.8"/>
<circle cx="77" cy="76.5" r="38.5" fill="url(#paint3_linear)" fill-opacity="0.2"/>
</g>
<g clip-path="url(#clip0)">
<path d="M72.7471 81.6561L67.647 81.9851C67.647 81.9851 58.5983 70.6693 65.4719 58.6751C70.5386 49.8365 79.6956 51.7634 84.1623 53.3877C84.1623 53.3877 89.1442 52.9195 90.0222 60.595C90.9002 68.2705 88.3768 77.7624 82.8378 82.7524L72.7471 81.6561Z" fill="#414451"/>
<path d="M84.407 88.0368L81.3756 93.8106L75.5222 94.5083L70.4414 92.3848L69.7835 87.3398L71.0648 83.6522L71.4289 82.564C71.7043 82.2624 71.8912 81.8904 71.9686 81.4893C72.0334 81.2415 72.0803 80.9893 72.1091 80.7348C72.1354 80.5288 72.1571 80.318 72.1676 80.0986C72.2264 78.8801 72.1794 77.6588 72.0271 76.4484C72.0271 76.4484 83.3827 71.219 82.8682 76.4484C82.3537 81.6778 83.3681 82.2486 83.3681 82.2486L84.407 88.0368Z" fill="#F5BE9A"/>
<path d="M70.3998 87.8542C70.3998 87.8542 76.1636 90.7089 84.8922 87.8542V100H72.4309L70.3998 87.8542Z" fill="#69B0EE"/>
<path d="M81.3387 59.9576C81.3387 59.9576 81.0097 61.3466 78.8159 61.7494C77.7961 61.9613 76.7958 62.2587 75.826 62.6385C73.3059 63.5574 71.2591 65.4476 70.1429 67.8866C69.2875 69.8668 68.9625 72.0357 69.1999 74.1796C69.1999 74.1796 72.9666 80.5411 77.5 80.5042C82.0335 80.4673 85.8703 74.3986 86.5307 72.3516C86.5307 72.3516 87.737 72.4429 88.3406 70.6331C88.6367 69.8179 88.7824 68.9558 88.7708 68.0887C88.7648 67.8658 88.6837 67.6515 88.5407 67.4805C88.0884 67.0077 87.3995 66.847 86.7847 67.0708C86.7847 67.0706 82.6913 65.4416 81.3387 59.9576Z" fill="#F5BE9A"/>
<path d="M83.3733 82.2462L79.2759 100H95.0673C96.112 100 96.9591 99.1531 96.9591 98.1082V92.9086C96.959 88.3025 93.3631 84.4976 88.7644 84.2374L86.6694 84.1204C85.4871 84.0534 84.3875 83.4922 83.6397 82.5739L83.3733 82.2462Z" fill="#EEEFEE"/>
<path d="M71.6402 82.3058L75.7271 100H59.9328C58.888 100 58.041 99.1531 58.041 98.1082V92.9086C58.0411 88.3025 61.6369 84.4976 66.2357 84.2374L68.3306 84.1204C69.513 84.0534 70.6125 83.4922 71.3603 82.5739L71.6402 82.3058Z" fill="#EEEFEE"/>
<path d="M88.68 86.0233C86.3193 86.0233 84.4655 89.156 84.4655 93.1568C84.4285 94.8857 84.83 96.5958 85.6327 98.1275C85.8443 98.5056 86.0997 98.8574 86.3937 99.1758C86.7193 99.1667 87.0063 98.9596 87.1177 98.6536C86.8152 98.3374 86.5591 97.9799 86.3567 97.5918C85.6619 96.2184 85.314 94.6956 85.3435 93.1567C85.3435 89.7653 86.8701 86.9006 88.68 86.9006C90.4899 86.9006 92.0164 89.7653 92.0164 93.1567C92.0429 94.6974 91.6935 96.2212 90.9985 97.5965C90.8083 97.9608 90.5692 98.2973 90.2879 98.5968C90.3726 98.9123 90.6465 99.1405 90.9721 99.1669C91.2795 98.8286 91.5461 98.4553 91.7664 98.0548C92.5414 96.5404 92.929 94.8575 92.8943 93.1567C92.8944 89.1561 91.0418 86.0233 88.68 86.0233Z" fill="#BBBBCD"/>
<path d="M91.8361 98.3822C91.8349 98.8203 91.48 99.1752 91.0418 99.1764C91.018 99.1779 90.9943 99.1749 90.9716 99.1676C90.646 99.1412 90.3721 98.913 90.2874 98.5975C90.2623 98.5287 90.2504 98.4559 90.2523 98.3826C90.2502 97.9633 90.5791 97.6169 90.998 97.5971C91.0124 97.5935 91.0272 97.5922 91.0418 97.593C91.4786 97.591 91.8342 97.9435 91.8361 98.3802V98.3825V98.3822Z" fill="#575B6D"/>
<path d="M87.1721 98.3822C87.1729 98.4755 87.1549 98.568 87.1194 98.6543C87.008 98.9603 86.7209 99.1673 86.3953 99.1765H86.3778C85.9407 99.1745 85.5875 98.8193 85.5882 98.3822C85.5869 98.2953 85.6018 98.2089 85.6321 98.1276C85.7368 97.8128 86.0286 97.5985 86.3603 97.5926H86.3778C86.8149 97.5919 87.1702 97.945 87.1721 98.3822Z" fill="#575B6D"/>
<path d="M88.68 86.9025C88.484 86.9021 88.312 86.772 88.2585 86.5834C87.9347 85.6134 87.322 84.7655 86.5024 84.1537C86.3039 84.0148 86.2556 83.7414 86.3944 83.5429C86.5333 83.3444 86.8067 83.296 87.0052 83.4349C87.9922 84.1602 88.7257 85.1782 89.1013 86.344C89.1669 86.5778 89.0306 86.8204 88.797 86.886C88.7585 86.8968 88.7187 86.9024 88.6788 86.9024H88.68V86.9025Z" fill="#BBBBCD"/>
<path d="M72.1734 80.0985C72.16 80.318 72.1382 80.5287 72.1148 80.7347C72.086 80.9893 72.0391 81.2414 71.9743 81.4893C71.2134 82.0992 66.4593 86.2405 66.7186 94.4932C66.7268 94.7365 66.5363 94.9406 66.293 94.9491H66.2796C66.0425 94.9486 65.8484 94.7605 65.8406 94.5236C65.6171 88.9965 67.9533 83.6748 72.1734 80.0985Z" fill="#BBBBCD"/>
<path d="M66.193 98.4366C67.4049 98.4366 68.3874 97.4541 68.3874 96.2421C68.3874 95.0302 67.4049 94.0477 66.193 94.0477C64.981 94.0477 63.9985 95.0302 63.9985 96.2421C63.9985 97.4541 64.981 98.4366 66.193 98.4366Z" fill="#575B6D"/>
<path d="M66.1935 97.4369C66.8534 97.4369 67.3883 96.902 67.3883 96.2422C67.3883 95.5823 66.8534 95.0475 66.1935 95.0475C65.5337 95.0475 64.9988 95.5823 64.9988 96.2422C64.9988 96.902 65.5337 97.4369 66.1935 97.4369Z" fill="#BBBBCD"/>
</g>
<defs>
<filter id="filter0_d" x="0.5" y="0" width="152" height="152" filterUnits="userSpaceOnUse" color-interpolation-filters="sRGB">
<feFlood flood-opacity="0" result="BackgroundImageFix"/>
<feColorMatrix in="SourceAlpha" type="matrix" values="0 0 0 0 0 0 0 0 0 0 0 0 0 0 0 0 0 0 127 0" result="hardAlpha"/>
<feOffset/>
<feGaussianBlur stdDeviation="12.5"/>
<feComposite in2="hardAlpha" operator="out"/>
<feColorMatrix type="matrix" values="0 0 0 0 0 0 0 0 0 0 0 0 0 0 0 0 0 0 0.1 0"/>
<feBlend mode="normal" in2="BackgroundImageFix" result="effect1_dropShadow"/>
<feBlend mode="normal" in="SourceGraphic" in2="effect1_dropShadow" result="shape"/>
</filter>
<linearGradient id="paint0_linear" x1="35.0625" y1="51.1375" x2="133.238" y2="167.162" gradientUnits="userSpaceOnUse">
<stop stop-color="white"/>
<stop offset="1" stop-color="white" stop-opacity="0"/>
</linearGradient>
<linearGradient id="paint1_linear" x1="51.3188" y1="118.075" x2="127.5" y2="33.2875" gradientUnits="userSpaceOnUse">
<stop stop-color="#93B0D0"/>
<stop offset="1" stop-color="white" stop-opacity="0"/>
</linearGradient>
<linearGradient id="paint2_linear" x1="45.7188" y1="57.7312" x2="119.831" y2="145.319" gradientUnits="userSpaceOnUse">
<stop stop-color="white"/>
<stop offset="1" stop-color="white" stop-opacity="0"/>
</linearGradient>
<linearGradient id="paint3_linear" x1="57.9906" y1="108.263" x2="115.5" y2="44.2562" gradientUnits="userSpaceOnUse">
<stop stop-color="#93B0D0"/>
<stop offset="1" stop-color="white" stop-opacity="0"/>
</linearGradient>
<clipPath id="clip0">
<rect width="48" height="48" fill="white" transform="translate(53.5 52)"/>
</clipPath>
</defs>
</svg>
