<svg width="47" height="33" viewBox="0 0 47 33" fill="none" xmlns="http://www.w3.org/2000/svg">
<g clip-path="url(#clip0_13:899)">
<path d="M18.98 -2.22681C20.1304 -2.70922 20.6128 -4.08223 20.0933 -5.19549L18.2749 -9.01766C17.7554 -10.0934 16.4937 -10.5762 15.3805 -10.0934C12.2263 -8.75753 9.51735 -7.01343 7.36506 -4.89825C4.73036 -2.41235 2.94916 0.444997 1.98434 3.59921C1.01952 6.79091 0.5 11.1322 0.5 16.6614V28.0537C0.5 29.2783 1.50193 30.2802 2.72651 30.2802H17.3101C18.5347 30.2802 19.5366 29.2783 19.5366 28.0537V13.4701C19.5366 12.2451 18.5347 11.2436 17.3101 11.2436H10.3337C10.408 7.49523 11.2986 4.48982 12.9313 2.22583C14.2672 0.408259 16.2711 -1.07608 18.98 -2.22681Z" fill="#93B0D0"/>
<path d="M45.1786 -2.22698C46.329 -2.70939 46.811 -4.0824 46.2919 -5.19565L44.4736 -8.98034C43.954 -10.0565 42.6923 -10.5389 41.5791 -10.0565C38.462 -8.72058 35.7898 -6.97649 33.6008 -4.89841C30.9657 -2.37504 29.1478 0.482312 28.1826 3.63653C27.2178 6.75327 26.7357 11.0953 26.7357 16.6616V28.0539C26.7357 29.2785 27.7376 30.2804 28.9622 30.2804H43.5458C44.7704 30.2804 45.7724 29.2785 45.7724 28.0539V13.4703C45.7724 12.2453 44.7704 11.2438 43.5458 11.2438H36.5323C36.6066 7.49544 37.4975 4.49002 39.1299 2.22604C40.4658 0.408095 42.4697 -1.07624 45.1786 -2.22698Z" fill="#93B0D0"/>
</g>
<defs>
<clipPath id="clip0_13:899">
<rect width="46" height="33" fill="white" transform="translate(0.5)"/>
</clipPath>
</defs>
</svg>
